<svg xmlns="http://www.w3.org/2000/svg" version="1.1" xmlns:xlink="http://www.w3.org/1999/xlink" xmlns:svgjs="http://svgjs.dev/svgjs" width="1440" height="560" preserveAspectRatio="none" viewBox="0 0 1440 560"><g mask="url(&quot;#SvgjsMask1004&quot;)" fill="none"><rect width="1440" height="560" x="0" y="0" fill="rgba(9, 17, 25, 1)"></rect><path d="M140 70C106.59 70 57.93 109.55 57.93 140C57.93 166.19 103.8 183.27 140 183.27C161.14 183.27 172.6 163.35 172.6 140C172.6 106.72 163.92 70 140 70" stroke="rgba(51, 121, 194, 0.58)" stroke-width="2"></path><path d="M235.2 0C258.7 2.94 256.37 15.26 280 17.5C348.77 24.01 353.5 25.02 420 17.5C430.87 16.27 423.93 1.35 434.74 0C493.93 -7.4 497.37 0 560 0C630 0 630 0 700 0C738.34 0 776.67 -15.36 776.67 0C776.67 21.23 746.35 52.81 700 73.18C638.02 100.41 624.56 72.6 560 95.2C529.11 106.01 514.28 110.03 509.09 140C498.28 202.43 510.86 212.47 528 280C536.31 312.74 544.8 340.54 560 340.54C574.8 340.54 566.83 305.1 588 280C636.83 222.12 634.72 209.54 700 174.59C760.72 142.08 770.54 161.24 840 145.09C844.91 143.95 846.67 144.55 848.75 140C879.92 72 862.32 47.13 906.5 0C927.94 -22.87 943.25 0 980 0C1050 0 1050 0 1120 0C1190 0 1190 0 1260 0C1330 0 1330 0 1400 0C1470 0 1501.69 -31.69 1540 0C1571.69 26.21 1549.55 61.92 1540 115.8C1537.14 131.92 1515.19 124.94 1515.19 140C1515.19 173.33 1533.4 175.33 1540 212.59C1545.8 245.33 1540 246.3 1540 280C1540 350 1540 350 1540 420C1540 490 1575 525 1540 560C1505 595 1470 560 1400 560C1345.45 560 1335.18 577.5 1290.91 560C1265.18 549.83 1285.56 520.35 1260 504.65C1200.11 467.85 1173.76 439.54 1120 455C1077.51 467.22 1107.61 529.92 1067.5 560C1037.61 582.42 1023.75 560 980 560C910 560 910 560 840 560C780.85 560 734.37 590.59 721.69 560C705.35 520.59 788.76 475.92 781.95 420C777.91 386.83 740.62 381.82 700 381.82C662.31 381.82 629.97 387.82 625.33 420C617.13 476.91 692.78 520.47 674.33 560C660.11 590.47 617.16 560 560 560C490 560 490 560 420 560C350 560 350 560 280 560C210 560 210 560 140 560C70 560 39.6 590.4 0 560C-30.4 536.65 -12.52 500.65 0 452.5C5.68 430.65 33.95 442.17 36.4 420C43.49 355.92 32.5 348.76 19.09 280C14.3 255.42 3.35 257.88 0 233.33C-6.2 187.88 0 186.67 0 140C0 70 -35 35 0 0C35 -35 70 0 140 0C187.6 0 188.7 -5.81 235.2 0" stroke="rgba(51, 121, 194, 0.58)" stroke-width="2"></path><path d="M1120 182.78C1083.55 182.78 1066.15 229.7 1066.15 280C1066.15 345.62 1081.16 414.62 1120 414.62C1168.43 414.62 1240.69 342.42 1240.69 280C1240.69 226.5 1170.82 182.78 1120 182.78" stroke="rgba(51, 121, 194, 0.58)" stroke-width="2"></path><path d="M115.11 0C115.11 29.71 34.49 103.6 0 103.6C-23.07 103.6 -27.26 24.54 0 0C30.29 -27.26 115.11 -22.09 115.11 0" stroke="rgba(51, 121, 194, 0.58)" stroke-width="2"></path><path d="M220.55 140C220.55 102.99 242.6 74.65 280 72.19C342.33 68.09 352.51 96.28 420 126.88C427.29 130.18 426.69 132.44 429.55 140C455.69 209 449.41 211.82 478 280C508.12 351.82 511.42 350.61 546.98 420C552.42 430.61 554.73 429.31 560 440C589.24 499.31 616 517.83 616 560C616 577.83 588 560 560 560C514.6 560 511.24 570.51 469.19 560C441.24 553.01 443.96 525 420 525C398.2 525 402.87 553.7 377.67 560C332.87 571.2 328.84 560 280 560C210 560 210 560 140 560C70 560 52.97 577.03 0 560C-17.03 554.53 -12.76 531.79 0 515C40.44 461.79 81.53 479.25 106.4 420C130.85 361.75 86.45 342.82 98.64 280C103.25 256.27 117 246.91 140 246.91C177.24 246.91 208.94 247.44 219.13 280C236.03 333.98 176.43 363.32 194.19 420C206.87 460.47 241.27 474.29 280 474.29C307.11 474.29 319.83 452.65 325.86 420C337.78 355.51 332.85 344.36 315.9 280C309.92 257.28 293.82 266.14 280 245.85C246.14 196.14 220.55 189.82 220.55 140" stroke="rgba(51, 121, 194, 0.58)" stroke-width="2"></path><path d="M560 25.2C540.65 25.2 526.84 7.01 526.84 0C526.84 -5.59 543.42 0 560 0C617.28 0 674.55 -6.23 674.55 0C674.55 6.37 614.5 25.2 560 25.2" stroke="rgba(51, 121, 194, 0.58)" stroke-width="2"></path><path d="M958.13 140C984.14 112.78 965.79 62.22 980 62.22C995.14 62.22 1010.69 98.56 1016.84 140C1026.85 207.45 1018.79 210.39 1012.31 280C1005.76 350.39 1005.22 351.68 990.77 420C989.07 428.04 983.34 425.14 980 432.73C952.5 495.14 971.52 521.43 929.09 560C901.52 585.07 884.55 560 840 560C805.49 560 770.99 579.44 770.99 560C770.99 522.47 791.42 483.62 840 446.05C881.93 413.62 952 434.21 952 420C952 405.63 895.51 406.06 840 388.89C769.51 367.08 764.08 375.56 700 342.05C659.96 321.11 631.75 311.32 631.75 280C631.75 248.18 658.28 230.04 700 215.76C762.4 194.4 774.65 227.91 840 208.73C903.72 190.03 914.14 186.04 958.13 140" stroke="rgba(51, 121, 194, 0.58)" stroke-width="2"></path><path d="M1151.61 140C1119.24 81.45 1100.6 36.36 1128.75 0C1154.8 -33.64 1194.38 0 1260 0C1304.68 0 1309 -12.04 1349.36 0C1379 8.84 1375.86 41.75 1400 41.75C1421.35 41.75 1414.57 7.68 1440.34 0C1484.57 -13.19 1511.17 -21 1540 0C1561 15.3 1554.83 42.55 1540 72.59C1520.28 112.55 1501.93 103.27 1470.89 140C1431.93 186.1 1448.92 215.66 1400 238.25C1343.47 264.35 1320.86 261.46 1260 237.39C1196.66 212.34 1184.86 200.14 1151.61 140" stroke="rgba(51, 121, 194, 0.58)" stroke-width="2"></path><path d="M1254.4 420C1254.4 417.27 1256.35 415.76 1260 413.64C1329.15 373.44 1325.78 349.57 1400 335.35C1465.78 322.75 1490.78 330.24 1540 360C1560.78 372.56 1540 390 1540 420C1540 490 1575 525 1540 560C1505 595 1470 560 1400 560C1368.18 560 1356.59 579.75 1336.36 560C1286.59 511.38 1299.35 490.48 1260 423.26C1258.37 420.48 1254.4 422.08 1254.4 420" stroke="rgba(51, 121, 194, 0.58)" stroke-width="2"></path><path d="M37.33 0C37.33 9.64 11.18 33.6 0 33.6C-7.48 33.6 -8.84 7.96 0 0C9.82 -8.84 37.33 -7.16 37.33 0" stroke="rgba(51, 121, 194, 0.58)" stroke-width="2"></path><path d="M268.49 140C268.49 132.84 272.78 126.88 280 126.88C293.54 126.88 310 132.03 310 140C310 148.84 292.6 160.49 280 160.49C271.85 160.49 268.49 149.64 268.49 140" stroke="rgba(51, 121, 194, 0.58)" stroke-width="2"></path><path d="M1208.06 140C1200.71 77.26 1215.6 60.73 1238.13 0C1241.57 -9.27 1249.07 0 1260 0C1267.45 0 1269 -4.34 1274.89 0C1339 47.24 1340.75 48.48 1400 103.16C1416.6 118.48 1426.58 121.58 1426.58 140C1426.58 158.42 1420.37 171.13 1400 176.84C1337.08 194.47 1324.09 198.97 1260 186.67C1228.12 180.55 1211.64 170.59 1208.06 140" stroke="rgba(51, 121, 194, 0.58)" stroke-width="2"></path><path d="M1540 29.38C1527.3 29.38 1499.66 8.12 1499.66 0C1499.66 -6.57 1528.33 -8.5 1540 0C1548.5 6.19 1547.47 29.38 1540 29.38" stroke="rgba(51, 121, 194, 0.58)" stroke-width="2"></path><path d="M405.64 280C408.26 267.5 414.08 258.46 420 258.46C425.26 258.46 424.88 268.95 428 280C447.67 349.72 468.42 356.9 465.58 420C464.42 445.75 441.38 457.69 420 457.69C401.7 457.69 388.1 443.43 386.21 420C380.92 354.58 391.36 348.27 405.64 280" stroke="rgba(51, 121, 194, 0.58)" stroke-width="2"></path><path d="M675.5 280C675.5 268.58 684.14 257.68 700 256.94C766.39 253.86 770.28 263.03 840 272.36C856.43 274.56 872.31 275.25 872.31 280C872.31 284.91 856.94 289.48 840 291.67C770.78 300.62 766.56 306.99 700 302.27C684.31 301.16 675.5 291.24 675.5 280" stroke="rgba(51, 121, 194, 0.58)" stroke-width="2"></path><path d="M1394.4 420C1394.8 416.84 1397.08 416.74 1400 416.74C1404 416.74 1405.46 416.59 1408.24 420C1463.79 488.22 1519.15 517.8 1516.67 560C1515.03 587.8 1458.34 560 1400 560C1390.91 560 1382.14 568.02 1381.82 560C1379.34 498.02 1385.71 488.47 1394.4 420" stroke="rgba(51, 121, 194, 0.58)" stroke-width="2"></path><path d="M49 560C49 540.48 90.05 493.09 140 490C205.55 485.94 211.68 515.11 280 545.71C289.82 550.11 296.28 555.92 296.28 560C296.28 563.07 288.14 560 280 560C210 560 210 560 140 560C94.5 560 49 575.48 49 560" stroke="rgba(51, 121, 194, 0.58)" stroke-width="2"></path><path d="M820.28 560C820.28 549.28 829.17 527.44 840 527.44C851.76 527.44 865.45 549.92 865.45 560C865.45 566.2 852.72 560 840 560C830.14 560 820.28 565.56 820.28 560" stroke="rgba(51, 121, 194, 0.58)" stroke-width="2"></path></g><defs><mask id="SvgjsMask1004"><rect width="1440" height="560" fill="#ffffff"></rect></mask></defs></svg>